/vscmnt/brussel_pixiu_data/_data_brussel/112/vsc11236/PredSimResults/SUBJ09opt3D/weighted-LRposFixed/trackIG/worker_03.mot
version=1
nRows=11
nColumns=50
inDegrees=yes
endheader
                time	         pelvis_tilt	         pelvis_list	     pelvis_rotation	           pelvis_tx	           pelvis_ty	           pelvis_tz	       hip_flexion_r	     hip_adduction_r	      hip_rotation_r	        knee_angle_r	       ankle_angle_r	         mtp_angle_r	       hip_flexion_l	     hip_adduction_l	      hip_rotation_l	        knee_angle_l	       ankle_angle_l	         mtp_angle_l	    lumbar_extension	      lumbar_bending	     lumbar_rotation	 ercspn_r/activation	 intobl_r/activation	 extobl_r/activation	    abd_r/activation	    add_r/activation	hamstrings_r/activation	bifemsh_r/activation	glut_max_r/activation	iliopsoas_r/activation	rect_fem_r/activation	  vasti_r/activation	gastroc_r/activation	 soleus_r/activation	tib_ant_r/activation	 ercspn_l/activation	 intobl_l/activation	 extobl_l/activation	    abd_l/activation	    add_l/activation	hamstrings_l/activation	bifemsh_l/activation	glut_max_l/activation	iliopsoas_l/activation	rect_fem_l/activation	  vasti_l/activation	gastroc_l/activation	 soleus_l/activation	tib_ant_l/activation	
          1.30338729	         -4.18822683	         -0.80911586	          7.31647847	          1.51192926	          0.99007126	         -0.00141904	         28.27158670	         -1.10525476	         -7.61034432	         -5.50472714	          3.71521768	          0.24091082	        -13.28733974	         -2.09203083	         -5.00790133	        -10.29047044	          4.54991259	         36.70816176	        -13.37689598	         -1.70353221	         -8.17089009	          0.02886326	          0.16287353	          0.03673282	          0.00999999	          0.28073506	          0.05053916	          0.10565103	          0.07898416	          0.12656087	          0.01481650	          0.00999999	          0.01481650	          0.01295994	          0.32092910	          0.02862959	          0.00999999	          0.00999999	          0.03252656	          0.00999999	          0.02519984	          0.28035566	          0.01271303	          0.09231108	          0.00999999	          0.00999999	          0.33532458	          0.23665438	          0.01237057	
          1.31642116	         -4.23697907	         -0.92677107	          7.33160292	          1.53184949	          0.98787281	         -0.00063353	         28.26036885	         -0.93980535	         -7.79917340	         -7.39730241	          3.29097872	          0.20670882	        -13.89235753	         -2.43351458	         -5.42179980	        -11.09118707	          3.46357875	         38.35618439	        -12.83639188	         -1.21304173	         -8.31499396	          0.02371222	          0.13380657	          0.03017735	          0.06018926	          0.23063413	          0.05990115	          0.08679619	          0.11587266	          0.10397438	          0.01217230	          0.00999999	          0.01217230	          0.01217230	          0.35929350	          0.02469251	          0.00999999	          0.00999999	          0.02672176	          0.00999999	          0.02861560	          0.23812007	          0.01044422	          0.09644818	          0.00999999	          0.00999999	          0.30590336	          0.21394235	          0.01016288	
          1.32945504	         -4.26692860	         -1.07061966	          7.31767183	          1.55207041	          0.98600034	          0.00023731	         28.10891020	         -0.75020392	         -8.00516012	         -9.08742894	          2.72604915	          0.19539870	        -14.29959432	         -2.82757392	         -5.85804846	        -12.28322633	          2.22638241	         39.99270350	        -12.27684463	         -0.69359453	         -8.42062525	          0.01948046	          0.10992699	          0.02479180	          0.10951227	          0.22926335	          0.05802321	          0.07130625	          0.14496897	          0.08541876	          0.00999999	          0.00999999	          0.00999999	          0.00999999	          0.40151644	          0.02028580	          0.00999999	          0.00999999	          0.02195290	          0.00999999	          0.03367260	          0.19562435	          0.00999999	          0.12868702	          0.00999999	          0.00999999	          0.26440991	          0.18506901	          0.00999999	
          1.34248891	         -4.28054925	         -1.22140120	          7.27367535	          1.57222923	          0.98464580	          0.00121317	         27.94885560	         -0.55251029	         -8.25611816	        -10.78263839	          2.17672746	          0.16504817	        -14.41768484	         -3.26136201	         -6.31372726	        -13.98715206	          0.85045856	         41.48683817	        -11.74209783	         -0.16824913	         -8.48722500	          0.02913230	          0.09030905	          0.02036737	          0.16197651	          0.24836002	          0.05936990	          0.05858069	          0.14516260	          0.07017464	          0.00999999	          0.07564936	          0.00999999	          0.00999999	          0.42416092	          0.06911028	          0.00999999	          0.00999999	          0.01803511	          0.01664061	          0.04401325	          0.16071257	          0.00999999	          0.10572110	          0.00999999	          0.00999999	          0.21722242	          0.15204097	          0.00999999	
          1.35552278	         -4.27994232	         -1.38064365	          7.20715678	          1.59207560	          0.98396354	          0.00228199	         27.81855629	         -0.34476668	         -8.49965021	        -12.57116878	          1.92414022	          0.12764158	        -14.18301885	         -3.74451402	         -6.78538165	        -16.27882416	         -0.63190572	         42.61394793	        -11.25563174	          0.36437643	         -8.51783021	          0.02702744	          0.07419219	          0.01673254	          0.18811848	          0.25952894	          0.05834842	          0.04812618	          0.17318379	          0.05765104	          0.00999999	          0.18373050	          0.00999999	          0.00999999	          0.42903780	          0.08705062	          0.00999999	          0.00999999	          0.01481650	          0.11456063	          0.05358245	          0.13203126	          0.00999999	          0.11141116	          0.00999999	          0.00999999	          0.17845617	          0.12490722	          0.00999999	
          1.36855666	         -4.26829014	         -1.53487183	          7.11676667	          1.61141651	          0.98408763	          0.00340696	         27.66534744	         -0.12988617	         -8.71140426	        -14.34599600	          2.04034794	          0.09538828	        -13.55278165	         -4.26594344	         -7.31360080	        -19.20380313	         -2.14176461	         42.99589297	        -10.83607889	          0.89146308	         -8.50919639	          0.02299239	          0.06095160	          0.01374640	          0.19503276	          0.27979757	          0.06066848	          0.03953742	          0.17839671	          0.04736244	          0.00999999	          0.23223352	          0.00999999	          0.00999999	          0.39751545	          0.09355831	          0.00999999	          0.00999999	          0.01217230	          0.17657755	          0.05448910	          0.10846851	          0.00999999	          0.09152834	          0.00999999	          0.00999999	          0.14660827	          0.10261585	          0.00999999	
          1.38159053	         -4.24756807	         -1.66306090	          7.00058693	          1.63019061	          0.98502501	          0.00455012	         27.42252190	          0.08086295	         -8.88021506	        -15.97977094	          2.51413227	          0.08874686	        -12.52487961	         -4.81698121	         -7.92108118	        -22.76232338	         -3.61874691	         42.31781472	        -10.48860754	          1.39153038	         -8.45866384	          0.01888909	          0.05007397	          0.01129317	          0.19155100	          0.27648218	          0.06229908	          0.03248144	          0.18414404	          0.03890997	          0.00999999	          0.28082441	          0.00999999	          0.00999999	          0.34161493	          0.08703385	          0.00999999	          0.00999999	          0.00999999	          0.23798627	          0.05770530	          0.08911085	          0.00999999	          0.07519389	          0.00999999	          0.00999999	          0.12044406	          0.08430268	          0.00999999	
          1.39462440	         -4.21933217	         -1.74699740	          6.85532576	          1.64839948	          0.98672117	          0.00567074	         27.01346335	          0.28298971	         -8.98187872	        -17.31240628	          3.21499331	          0.17271236	        -11.14216637	         -5.38702050	         -8.58996111	        -26.81510076	         -5.24338051	         40.68518580	        -10.21146099	          1.84728372	         -8.36144915	          0.01551808	          0.04113760	          0.00999999	          0.19084101	          0.26846519	          0.06705309	          0.02668469	          0.17743626	          0.03196597	          0.00999999	          0.29039171	          0.00999999	          0.00999999	          0.28562408	          0.07150150	          0.00999999	          0.00999999	          0.00999999	          0.27963467	          0.05430786	          0.07540010	          0.00999999	          0.06177453	          0.00999999	          0.00999999	          0.09894921	          0.06925774	          0.02209387	
          1.40765828	         -4.18428081	         -1.76898716	          6.67876257	          1.66605262	          0.98904354	          0.00672979	         26.40315618	          0.46382695	         -8.99907569	        -18.25234991	          3.94189306	          0.37007138	         -9.46894654	         -5.95906442	         -9.26986627	        -31.21701551	         -6.94533021	         37.92902326	        -10.00276351	          2.24175128	         -8.21195309	          0.01274867	          0.03379604	          0.00999999	          0.19643815	          0.22055398	          0.06631543	          0.02192245	          0.15943682	          0.02626121	          0.00999999	          0.29356204	          0.00999999	          0.00999999	          0.23612061	          0.07469172	          0.04021542	          0.01038842	          0.00999999	          0.24136584	          0.04461589	          0.06194394	          0.00999999	          0.05075004	          0.00999999	          0.00999999	          0.08129040	          0.05689777	          0.07580476	
          1.42069215	         -4.14167320	         -1.72769955	          6.47359987	          1.68313525	          0.99180358	          0.00771230	         25.60886193	          0.61653975	         -8.93315323	        -18.82181704	          4.63770712	          0.70679381	         -7.58014748	         -6.51114642	         -9.84754770	        -35.83871224	         -8.40062639	         33.79017759	         -9.86423508	          2.56939357	         -8.00184559	          0.01047350	          0.02776469	          0.00999999	          0.16467968	          0.19202294	          0.06547953	          0.01801010	          0.13098319	          0.02157455	          0.00999999	          0.28743533	          0.00999999	          0.00999999	          0.19398172	          0.10498685	          0.07035051	          0.07808540	          0.00999999	          0.19829087	          0.03665359	          0.05088922	          0.00999999	          0.04169301	          0.00999999	          0.00999999	          0.06678304	          0.04674360	          0.18110991	
          1.43372602	         -4.09089219	         -1.63558545	          6.23608887	          1.69959170	          0.99480191	          0.00860276	         24.68891254	          0.74066874	         -8.80163704	        -19.11102200	          5.26220085	          1.14652463	         -5.56099981	         -6.96894182	        -10.20125861	        -40.48642802	         -9.09684763	         28.76444584	         -9.80438053	          2.83763587	         -7.72527695	          0.00999999	          0.02280971	          0.00999999	          0.13977506	          0.18461966	          0.05995931	          0.01479595	          0.10782519	          0.01772428	          0.00999999	          0.26422152	          0.00999999	          0.00999999	          0.15936309	          0.11399771	          0.07762610	          0.11057554	          0.00999999	          0.16290321	          0.03011226	          0.05205557	          0.00999999	          0.03425234	          0.00999999	          0.00999999	          0.05486471	          0.03840158	          0.20411156	
